<?xml version="1.0" standalone="no"?><svg xmlns="http://www.w3.org/2000/svg" viewBox="0 0 1440 320"><path fill="#0099ff" fill-opacity="1" d="M0,288L8.9,250.7C17.8,213,36,139,53,144C71.1,149,89,235,107,234.7C124.4,235,142,149,160,112C177.8,75,196,85,213,101.3C231.1,117,249,139,267,176C284.4,213,302,267,320,293.3C337.8,320,356,320,373,298.7C391.1,277,409,235,427,208C444.4,181,462,171,480,154.7C497.8,139,516,117,533,128C551.1,139,569,181,587,213.3C604.4,245,622,267,640,256C657.8,245,676,203,693,192C711.1,181,729,203,747,213.3C764.4,224,782,224,800,229.3C817.8,235,836,245,853,224C871.1,203,889,149,907,112C924.4,75,942,53,960,85.3C977.8,117,996,203,1013,234.7C1031.1,267,1049,245,1067,202.7C1084.4,160,1102,96,1120,106.7C1137.8,117,1156,203,1173,208C1191.1,213,1209,139,1227,101.3C1244.4,64,1262,64,1280,64C1297.8,64,1316,64,1333,101.3C1351.1,139,1369,213,1387,240C1404.4,267,1422,245,1431,234.7L1440,224L1440,320L1431.1,320C1422.2,320,1404,320,1387,320C1368.9,320,1351,320,1333,320C1315.6,320,1298,320,1280,320C1262.2,320,1244,320,1227,320C1208.9,320,1191,320,1173,320C1155.6,320,1138,320,1120,320C1102.2,320,1084,320,1067,320C1048.9,320,1031,320,1013,320C995.6,320,978,320,960,320C942.2,320,924,320,907,320C888.9,320,871,320,853,320C835.6,320,818,320,800,320C782.2,320,764,320,747,320C728.9,320,711,320,693,320C675.6,320,658,320,640,320C622.2,320,604,320,587,320C568.9,320,551,320,533,320C515.6,320,498,320,480,320C462.2,320,444,320,427,320C408.9,320,391,320,373,320C355.6,320,338,320,320,320C302.2,320,284,320,267,320C248.9,320,231,320,213,320C195.6,320,178,320,160,320C142.2,320,124,320,107,320C88.9,320,71,320,53,320C35.6,320,18,320,9,320L0,320Z"></path></svg>